<mxfile host="65bd71144e">
    <diagram id="WJnIu5Gki1Yn_MmWQ86R" name="Page-1">
        <mxGraphModel dx="1828" dy="879" grid="1" gridSize="10" guides="1" tooltips="1" connect="1" arrows="1" fold="1" page="1" pageScale="1" pageWidth="850" pageHeight="1100" background="#FFFFFF" math="0" shadow="0">
            <root>
                <mxCell id="0"/>
                <mxCell id="1" parent="0"/>
                <mxCell id="3" value="" style="shape=image;verticalLabelPosition=bottom;labelBackgroundColor=default;verticalAlign=top;aspect=fixed;imageAspect=0;image=data:image/svg+xml,PHN2ZyB4bWxuczp4bGluaz0iaHR0cDovL3d3dy53My5vcmcvMTk5OS94bGluayIgeG1sbnM9Imh0dHA6Ly93d3cudzMub3JnLzIwMDAvc3ZnIiB4bWw6c3BhY2U9InByZXNlcnZlIiB2aWV3Qm94PSIwIDAgNTEyIDUxMiIgaGVpZ2h0PSI4MDBweCIgd2lkdGg9IjgwMHB4IiBpZD0iX3gzMl8iIHZlcnNpb249IjEuMSI+CjxzdHlsZSB0eXBlPSJ0ZXh0L2NzcyI+CgoJLnN0MHtmaWxsOiMwMDAwMDA7fQoKPC9zdHlsZT4KPGc+Cgk8cGF0aCBkPSJNNDE5LjQzOCwwSDkyLjU2M0M3NC4wNzgsMCw1OS4wNzgsMTUsNTkuMDc4LDMzLjV2NDQ1YzAsMTguNSwxNSwzMy41LDMzLjQ4NCwzMy41aDMyNi44NzUmIzEwOyYjOTsmIzk7YzE4LjUsMCwzMy40ODQtMTUsMzMuNDg0LTMzLjV2LTQ0NUM0NTIuOTIyLDE1LDQzNy45MzgsMCw0MTkuNDM4LDB6IE0yNTkuOTM4LDQ5MC45ODRjLTcuOTY5LDAtMTQuNDM4LTYuNDUzLTE0LjQzOC0xNC40NTMmIzEwOyYjOTsmIzk7YzAtNy45NjksNi40NjktMTQuNDM4LDE0LjQzOC0xNC40MzhjNy45ODQsMCwxNC40MzgsNi40NjksMTQuNDM4LDE0LjQzOEMyNzQuMzc1LDQ4NC41MzEsMjY3LjkyMiw0OTAuOTg0LDI1OS45MzgsNDkwLjk4NHomIzEwOyYjOTsmIzk7IE00MTMuNTMxLDQ0MS4xMDlIOTguNDY5VjM5LjM3NWgzMTUuMDYzVjQ0MS4xMDl6IiBjbGFzcz0ic3QwIi8+CjwvZz4KPC9zdmc+;rotation=-90;" vertex="1" parent="1">
                    <mxGeometry x="360" y="270" width="160" height="160" as="geometry"/>
                </mxCell>
                <mxCell id="4" value="" style="shape=image;verticalLabelPosition=bottom;labelBackgroundColor=default;verticalAlign=top;aspect=fixed;imageAspect=0;image=data:image/svg+xml,PHN2ZyB4bWxucz0iaHR0cDovL3d3dy53My5vcmcvMjAwMC9zdmciIHZpZXdCb3g9Ii0xMi4yNiAwIDU1LjA3OCA1NS4wNzgiIGhlaWdodD0iODAwcHgiIHdpZHRoPSI4MDBweCIgZmlsbD0iIzAwMDAwMCI+CiAgPHBhdGggdHJhbnNmb3JtPSJ0cmFuc2xhdGUoLTE4Mi4yNzQgLTY2MS45MjYpIiBkPSJNMjEwLjM1NCw2NjEuOTI2SDE4NC43NDZhMi40NzUsMi40NzUsMCwwLDAtMi40NzIsMi40NzJ2NTAuMTM2YTIuNDc4LDIuNDc4LDAsMCwwLDIuNDcyLDIuNDdoMjUuNjFhMi40NzYsMi40NzYsMCwwLDAsMi40NjktMi40NzJWNjY0LjRBMi40NzIsMi40NzIsMCwwLDAsMjEwLjM1NCw2NjEuOTI2Wm0tMTAuMDc5LDQ5LjA4MWEyLjcyMywyLjcyMywwLDEsMS0yLjcyNi0yLjcxNkEyLjczNywyLjczNywwLDAsMSwyMDAuMjc1LDcxMS4wMDdabTkuOC00Ljk4OUgxODUuMDMyVjY2Ny4xOTFoMjUuMDM3WiIgZGF0YS1uYW1lPSJzbWFydCBwaG9uZSIgaWQ9InNtYXJ0X3Bob25lIi8+Cjwvc3ZnPg==;" vertex="1" parent="1">
                    <mxGeometry x="440" y="700" width="120" height="120" as="geometry"/>
                </mxCell>
                <mxCell id="6" value="" style="shape=image;verticalLabelPosition=bottom;labelBackgroundColor=default;verticalAlign=top;aspect=fixed;imageAspect=0;image=data:image/svg+xml,PHN2ZyB4bWxuczp4bGluaz0iaHR0cDovL3d3dy53My5vcmcvMTk5OS94bGluayIgeG1sbnM9Imh0dHA6Ly93d3cudzMub3JnLzIwMDAvc3ZnIiB4bWw6c3BhY2U9InByZXNlcnZlIiB2aWV3Qm94PSIwIDAgMjYwIDIwNCIgaGVpZ2h0PSI4MDBweCIgd2lkdGg9IjgwMHB4IiBpZD0iTGF5ZXJfMSIgdmVyc2lvbj0iMS4xIiBmaWxsPSIjMDAwMDAwIj4KPHBhdGggZD0iTTI0MiwxNDZWMTRjMC02LjYyNy01LjM3My0xMi0xMi0xMkgzMGMtNi42MjcsMC0xMiw1LjM3My0xMiwxMnYxMzJMMiwxNzh2MTJjMCw2LjYyNyw1LjM3MywxMiwxMiwxMmgyMzImIzEwOyYjOTtjNi42MjcsMCwxMi01LjM3MywxMi0xMnYtMTJMMjQyLDE0NnogTTEwNS43NDYsMTc4bDEuMTQtMTJoNDYuNDc4bDEuMTQsMTJIMTA1Ljc0NnogTTIyMiwxNDZIMzhWMjJoMTg0VjE0NnoiLz4KPC9zdmc+;" vertex="1" parent="1">
                    <mxGeometry x="50" y="530" width="200" height="200" as="geometry"/>
                </mxCell>
                <mxCell id="7" value="" style="shape=image;verticalLabelPosition=bottom;labelBackgroundColor=default;verticalAlign=top;aspect=fixed;imageAspect=0;image=data:image/svg+xml,PHN2ZyB4bWxuczp4bGluaz0iaHR0cDovL3d3dy53My5vcmcvMTk5OS94bGluayIgeG1sbnM9Imh0dHA6Ly93d3cudzMub3JnLzIwMDAvc3ZnIiB4bWw6c3BhY2U9InByZXNlcnZlIiB2aWV3Qm94PSIwIDAgNTEyIDUxMiIgaGVpZ2h0PSI4MDBweCIgd2lkdGg9IjgwMHB4IiBpZD0iX3gzMl8iIHZlcnNpb249IjEuMSI+CjxzdHlsZSB0eXBlPSJ0ZXh0L2NzcyI+CgoJLnN0MHtmaWxsOiMwMDAwMDA7fQoKPC9zdHlsZT4KPGc+Cgk8cGF0aCBkPSJNNDE5LjQzOCwwSDkyLjU2M0M3NC4wNzgsMCw1OS4wNzgsMTUsNTkuMDc4LDMzLjV2NDQ1YzAsMTguNSwxNSwzMy41LDMzLjQ4NCwzMy41aDMyNi44NzUmIzEwOyYjOTsmIzk7YzE4LjUsMCwzMy40ODQtMTUsMzMuNDg0LTMzLjV2LTQ0NUM0NTIuOTIyLDE1LDQzNy45MzgsMCw0MTkuNDM4LDB6IE0yNTkuOTM4LDQ5MC45ODRjLTcuOTY5LDAtMTQuNDM4LTYuNDUzLTE0LjQzOC0xNC40NTMmIzEwOyYjOTsmIzk7YzAtNy45NjksNi40NjktMTQuNDM4LDE0LjQzOC0xNC40MzhjNy45ODQsMCwxNC40MzgsNi40NjksMTQuNDM4LDE0LjQzOEMyNzQuMzc1LDQ4NC41MzEsMjY3LjkyMiw0OTAuOTg0LDI1OS45MzgsNDkwLjk4NHomIzEwOyYjOTsmIzk7IE00MTMuNTMxLDQ0MS4xMDlIOTguNDY5VjM5LjM3NWgzMTUuMDYzVjQ0MS4xMDl6IiBjbGFzcz0ic3QwIi8+CjwvZz4KPC9zdmc+;rotation=-90;" vertex="1" parent="1">
                    <mxGeometry x="500" y="480" width="160" height="160" as="geometry"/>
                </mxCell>
                <mxCell id="8" value="" style="shape=image;verticalLabelPosition=bottom;labelBackgroundColor=default;verticalAlign=top;aspect=fixed;imageAspect=0;image=data:image/svg+xml,PHN2ZyB4bWxucz0iaHR0cDovL3d3dy53My5vcmcvMjAwMC9zdmciIHZpZXdCb3g9Ii0xMi4yNiAwIDU1LjA3OCA1NS4wNzgiIGhlaWdodD0iODAwcHgiIHdpZHRoPSI4MDBweCIgZmlsbD0iIzAwMDAwMCI+CiAgPHBhdGggdHJhbnNmb3JtPSJ0cmFuc2xhdGUoLTE4Mi4yNzQgLTY2MS45MjYpIiBkPSJNMjEwLjM1NCw2NjEuOTI2SDE4NC43NDZhMi40NzUsMi40NzUsMCwwLDAtMi40NzIsMi40NzJ2NTAuMTM2YTIuNDc4LDIuNDc4LDAsMCwwLDIuNDcyLDIuNDdoMjUuNjFhMi40NzYsMi40NzYsMCwwLDAsMi40NjktMi40NzJWNjY0LjRBMi40NzIsMi40NzIsMCwwLDAsMjEwLjM1NCw2NjEuOTI2Wm0tMTAuMDc5LDQ5LjA4MWEyLjcyMywyLjcyMywwLDEsMS0yLjcyNi0yLjcxNkEyLjczNywyLjczNywwLDAsMSwyMDAuMjc1LDcxMS4wMDdabTkuOC00Ljk4OUgxODUuMDMyVjY2Ny4xOTFoMjUuMDM3WiIgZGF0YS1uYW1lPSJzbWFydCBwaG9uZSIgaWQ9InNtYXJ0X3Bob25lIi8+Cjwvc3ZnPg==;" vertex="1" parent="1">
                    <mxGeometry x="350" y="890" width="120" height="120" as="geometry"/>
                </mxCell>
                <mxCell id="9" value="" style="shape=image;verticalLabelPosition=bottom;labelBackgroundColor=default;verticalAlign=top;aspect=fixed;imageAspect=0;image=data:image/svg+xml,PHN2ZyB4bWxuczp4bGluaz0iaHR0cDovL3d3dy53My5vcmcvMTk5OS94bGluayIgeG1sbnM9Imh0dHA6Ly93d3cudzMub3JnLzIwMDAvc3ZnIiB4bWw6c3BhY2U9InByZXNlcnZlIiB2aWV3Qm94PSIwIDAgNTEyIDUxMiIgaGVpZ2h0PSI4MDBweCIgd2lkdGg9IjgwMHB4IiBpZD0iX3gzMl8iIHZlcnNpb249IjEuMSI+CjxzdHlsZSB0eXBlPSJ0ZXh0L2NzcyI+CgoJLnN0MHtmaWxsOiMwMDAwMDA7fQoKPC9zdHlsZT4KPGc+Cgk8cGF0aCBkPSJNNDE5LjQzOCwwSDkyLjU2M0M3NC4wNzgsMCw1OS4wNzgsMTUsNTkuMDc4LDMzLjV2NDQ1YzAsMTguNSwxNSwzMy41LDMzLjQ4NCwzMy41aDMyNi44NzUmIzEwOyYjOTsmIzk7YzE4LjUsMCwzMy40ODQtMTUsMzMuNDg0LTMzLjV2LTQ0NUM0NTIuOTIyLDE1LDQzNy45MzgsMCw0MTkuNDM4LDB6IE0yNTkuOTM4LDQ5MC45ODRjLTcuOTY5LDAtMTQuNDM4LTYuNDUzLTE0LjQzOC0xNC40NTMmIzEwOyYjOTsmIzk7YzAtNy45NjksNi40NjktMTQuNDM4LDE0LjQzOC0xNC40MzhjNy45ODQsMCwxNC40MzgsNi40NjksMTQuNDM4LDE0LjQzOEMyNzQuMzc1LDQ4NC41MzEsMjY3LjkyMiw0OTAuOTg0LDI1OS45MzgsNDkwLjk4NHomIzEwOyYjOTsmIzk7IE00MTMuNTMxLDQ0MS4xMDlIOTguNDY5VjM5LjM3NWgzMTUuMDYzVjQ0MS4xMDl6IiBjbGFzcz0ic3QwIi8+CjwvZz4KPC9zdmc+;rotation=-90;" vertex="1" parent="1">
                    <mxGeometry x="145" y="170" width="160" height="160" as="geometry"/>
                </mxCell>
                <mxCell id="10" value="&lt;font style=&quot;font-size: 14px;&quot;&gt;&lt;font style=&quot;font-size: 14px;&quot; color=&quot;#000000&quot;&gt;192.168.0.1&#9;&lt;span style=&quot;white-space: pre;&quot;&gt;&#9;&lt;/span&gt;&lt;/font&gt;&lt;font style=&quot;font-size: 14px;&quot; color=&quot;#000000&quot;&gt;ada6e1e513cb6799a512a5345c055304&lt;br&gt;192.168.0.3&amp;nbsp;&lt;span style=&quot;white-space: pre;&quot;&gt;&#9;&lt;/span&gt;8c27f6b5dc0e9e5a536aa0371648fb4a&lt;br&gt;192.168.0.4&amp;nbsp;&lt;span style=&quot;white-space: pre;&quot;&gt;&#9;&lt;/span&gt;&lt;/font&gt;&lt;span style=&quot;color: rgba(0, 0, 0, 0.87); font-family: Lato, &amp;quot;Helvetica Neue&amp;quot;, Arial, Helvetica, sans-serif; background-color: rgba(0, 0, 50, 0.02);&quot;&gt;0252f5158dc3a9531907fb42c00a4138&lt;/span&gt;&lt;/font&gt;&lt;font color=&quot;#000000&quot;&gt;&lt;br&gt;&lt;/font&gt;" style="text;html=1;strokeColor=none;fillColor=none;align=left;verticalAlign=middle;whiteSpace=wrap;rounded=0;" vertex="1" parent="1">
                    <mxGeometry x="-50" y="740" width="350" height="70" as="geometry"/>
                </mxCell>
                <mxCell id="11" value="Manage" style="text;html=1;align=center;verticalAlign=middle;resizable=0;points=[];autosize=1;strokeColor=none;fillColor=none;fontSize=14;fontColor=#000000;" vertex="1" parent="1">
                    <mxGeometry x="115" y="720" width="70" height="30" as="geometry"/>
                </mxCell>
                <mxCell id="12" value="" style="endArrow=none;html=1;fontSize=14;fontColor=#000000;exitX=0.5;exitY=0.15;exitDx=0;exitDy=0;exitPerimeter=0;strokeColor=#000000;entryX=0.188;entryY=0.266;entryDx=0;entryDy=0;entryPerimeter=0;" edge="1" parent="1" source="6" target="9">
                    <mxGeometry width="50" height="50" relative="1" as="geometry">
                        <mxPoint x="380" y="530" as="sourcePoint"/>
                        <mxPoint x="430" y="480" as="targetPoint"/>
                    </mxGeometry>
                </mxCell>
                <mxCell id="14" value="&lt;div style=&quot;text-align: left;&quot;&gt;&lt;span style=&quot;background-color: initial;&quot;&gt;192.168.0.1&lt;/span&gt;&lt;/div&gt;&lt;span style=&quot;&quot;&gt;&lt;div style=&quot;text-align: left;&quot;&gt;&lt;span style=&quot;background-color: initial;&quot;&gt;ada6e1e513cb6799a512a5345c055304&lt;/span&gt;&lt;/div&gt;&lt;div style=&quot;text-align: left;&quot;&gt;&lt;span style=&quot;background-color: initial;&quot;&gt;Order&lt;/span&gt;&lt;/div&gt;&lt;/span&gt;" style="text;html=1;align=center;verticalAlign=middle;resizable=0;points=[];autosize=1;strokeColor=none;fillColor=none;fontSize=14;fontColor=#000000;" vertex="1" parent="1">
                    <mxGeometry x="110" y="130" width="270" height="60" as="geometry"/>
                </mxCell>
                <mxCell id="17" value="" style="endArrow=none;html=1;fontSize=14;fontColor=#000000;entryX=0.5;entryY=0;entryDx=0;entryDy=0;exitX=0.9;exitY=0.2;exitDx=0;exitDy=0;exitPerimeter=0;strokeColor=#000000;" edge="1" parent="1" source="6" target="3">
                    <mxGeometry width="50" height="50" relative="1" as="geometry">
                        <mxPoint x="280" y="690" as="sourcePoint"/>
                        <mxPoint x="450" y="390" as="targetPoint"/>
                    </mxGeometry>
                </mxCell>
                <mxCell id="20" value="&lt;div style=&quot;&quot;&gt;&lt;span style=&quot;background-color: initial;&quot;&gt;192.168.0.2&lt;/span&gt;&lt;/div&gt;&lt;div style=&quot;&quot;&gt;&lt;span style=&quot;background-color: initial;&quot;&gt;Note: Not registered and no Order application Installed&lt;/span&gt;&lt;/div&gt;" style="text;html=1;align=left;verticalAlign=middle;resizable=0;points=[];autosize=1;strokeColor=none;fillColor=none;fontSize=14;fontColor=#000000;" vertex="1" parent="1">
                    <mxGeometry x="360" y="225" width="360" height="50" as="geometry"/>
                </mxCell>
                <mxCell id="23" value="" style="endArrow=none;html=1;fontSize=14;fontColor=#000000;entryX=0.5;entryY=0;entryDx=0;entryDy=0;exitX=0.9;exitY=0.4;exitDx=0;exitDy=0;exitPerimeter=0;strokeColor=#000000;" edge="1" parent="1" source="6" target="7">
                    <mxGeometry width="50" height="50" relative="1" as="geometry">
                        <mxPoint x="240" y="580" as="sourcePoint"/>
                        <mxPoint x="440" y="380" as="targetPoint"/>
                    </mxGeometry>
                </mxCell>
                <mxCell id="25" value="&lt;div style=&quot;text-align: left;&quot;&gt;&lt;span style=&quot;background-color: initial;&quot;&gt;192.168.0.3&lt;/span&gt;&lt;/div&gt;&lt;span style=&quot;&quot;&gt;&lt;div style=&quot;text-align: left;&quot;&gt;&lt;span style=&quot;background-color: initial;&quot;&gt;cccda6e1z519cb67991512a5345c055304&lt;/span&gt;&lt;/div&gt;&lt;div style=&quot;text-align: left;&quot;&gt;&lt;span style=&quot;background-color: initial;&quot;&gt;Order&lt;/span&gt;&lt;/div&gt;&lt;div style=&quot;text-align: left;&quot;&gt;&lt;span style=&quot;background-color: initial;&quot;&gt;Note: Wrong API connection Token&lt;/span&gt;&lt;/div&gt;&lt;/span&gt;" style="text;html=1;align=center;verticalAlign=middle;resizable=0;points=[];autosize=1;strokeColor=none;fillColor=none;fontSize=14;fontColor=#000000;" vertex="1" parent="1">
                    <mxGeometry x="550" y="410" width="280" height="80" as="geometry"/>
                </mxCell>
                <mxCell id="29" value="&lt;div style=&quot;text-align: left;&quot;&gt;&lt;span style=&quot;background-color: initial;&quot;&gt;192.168.0.4&lt;/span&gt;&lt;/div&gt;&lt;span style=&quot;&quot;&gt;&lt;div style=&quot;text-align: left;&quot;&gt;&lt;span style=&quot;color: rgba(0, 0, 0, 0.87); font-family: Lato, &amp;quot;Helvetica Neue&amp;quot;, Arial, Helvetica, sans-serif; background-color: rgba(0, 0, 50, 0.02);&quot;&gt;0252f5158dc3a9531907fb42c00a4138&lt;/span&gt;&lt;br&gt;&lt;/div&gt;&lt;div style=&quot;text-align: left;&quot;&gt;&lt;span style=&quot;background-color: initial;&quot;&gt;Order&lt;/span&gt;&lt;/div&gt;&lt;/span&gt;" style="text;html=1;align=center;verticalAlign=middle;resizable=0;points=[];autosize=1;strokeColor=none;fillColor=none;fontSize=14;fontColor=#000000;" vertex="1" parent="1">
                    <mxGeometry x="530" y="730" width="260" height="60" as="geometry"/>
                </mxCell>
                <mxCell id="30" value="" style="endArrow=none;html=1;fontSize=14;fontColor=#000000;entryX=0.25;entryY=0.5;entryDx=0;entryDy=0;strokeColor=#000000;entryPerimeter=0;exitX=0.9;exitY=0.5;exitDx=0;exitDy=0;exitPerimeter=0;" edge="1" parent="1" source="6" target="4">
                    <mxGeometry width="50" height="50" relative="1" as="geometry">
                        <mxPoint x="310" y="670" as="sourcePoint"/>
                        <mxPoint x="509.9999999999998" y="550" as="targetPoint"/>
                    </mxGeometry>
                </mxCell>
                <mxCell id="32" value="&lt;div style=&quot;text-align: left;&quot;&gt;&lt;span style=&quot;background-color: initial;&quot;&gt;192.168.0.5&lt;/span&gt;&lt;/div&gt;&lt;span style=&quot;&quot;&gt;&lt;div style=&quot;text-align: left;&quot;&gt;&lt;span style=&quot;background-color: initial;&quot;&gt;Order&lt;/span&gt;&lt;/div&gt;&lt;div style=&quot;text-align: left;&quot;&gt;&lt;span style=&quot;background-color: initial;&quot;&gt;&lt;br&gt;&lt;/span&gt;&lt;/div&gt;&lt;div style=&quot;text-align: left;&quot;&gt;&lt;span style=&quot;background-color: initial;&quot;&gt;Note: Not registered but has Order application&lt;/span&gt;&lt;/div&gt;&lt;/span&gt;" style="text;html=1;align=center;verticalAlign=middle;resizable=0;points=[];autosize=1;strokeColor=none;fillColor=none;fontSize=14;fontColor=#000000;" vertex="1" parent="1">
                    <mxGeometry x="440" y="900" width="310" height="80" as="geometry"/>
                </mxCell>
                <mxCell id="33" value="" style="endArrow=none;html=1;fontSize=14;fontColor=#000000;entryX=0.25;entryY=0.083;entryDx=0;entryDy=0;strokeColor=#000000;entryPerimeter=0;exitX=0.9;exitY=0.65;exitDx=0;exitDy=0;exitPerimeter=0;" edge="1" parent="1" source="6" target="8">
                    <mxGeometry width="50" height="50" relative="1" as="geometry">
                        <mxPoint x="239.99999999999977" y="640" as="sourcePoint"/>
                        <mxPoint x="539.9999999999998" y="730" as="targetPoint"/>
                    </mxGeometry>
                </mxCell>
                <mxCell id="37" value="" style="shape=image;verticalLabelPosition=bottom;labelBackgroundColor=default;verticalAlign=top;aspect=fixed;imageAspect=0;image=data:image/svg+xml,PHN2ZyB4bWxuczp4bGluaz0iaHR0cDovL3d3dy53My5vcmcvMTk5OS94bGluayIgeG1sbnM9Imh0dHA6Ly93d3cudzMub3JnLzIwMDAvc3ZnIiBwcmVzZXJ2ZUFzcGVjdFJhdGlvPSJ4TWlkWU1pZCBtZWV0IiBjbGFzcz0iaWNvbmlmeSBpY29uaWZ5LS1ub3RvIiByb2xlPSJpbWciIGFyaWEtaGlkZGVuPSJ0cnVlIiB2aWV3Qm94PSIzLjk3NTAwMDE0MzA1MTE0NzUgMy45NzUwMDAxNDMwNTExNDc1IDEyMC4wNDk5OTU0MjIzNjMyOCAxMjAuMTUwMDAxNTI1ODc4OSIgaGVpZ2h0PSI3NTAuOTM3NTA5NTM2NzQzMiIgd2lkdGg9Ijc1MC4zMTI0NzEzODk3NzA1Ij4KCjxwYXRoIGZpbGw9IiNjMzMiIGQ9Ik01OC45IDc4LjZsLTQxLjMgNDEuOWMtMS41IDEuNS0zLjIgMi41LTUgM2M0LjEgMS4yIDguNi4yIDExLjgtM2wzOC4yLTM4LjFjLjgtLjggMi4xLS44IDIuOCAwbC0zLjctMy44Yy0uNy0uOC0yLS44LTIuOCAweiI+Cgo8L3BhdGg+Cgo8cGF0aCBmaWxsPSIjYzMzIiBkPSJNODIuMyA2NS40Yy0uOC0uOC0uOC0yIDAtMi44bDM4LjItMzguMWM0LjctNC43IDQuNy0xMi4zIDAtMTdzLTEyLjItNC43LTE2LjkgMEw2NS40IDQ1LjZjLS44LjgtMiAuOC0yLjggMEwyNC41IDcuNWMtNC43LTQuNy0xMi4zLTQuNy0xNyAwYy0uNC40LS43LjgtMSAxLjJjLjItLjMuNC0uNS42LS43YzQuNy00LjYgMTAuMS0yLjUgMTQuOCAyLjJsMzcuNiAzOC41Yy44LjggMiAuOCAyLjggMGwzOS4zLTM5LjJjNC43LTQuNyA5LjQtNS4xIDE0LjEtLjRzMy45IDkuNi0uOCAxNC4zTDc1LjYgNjIuNmMtLjguOC0uOCAyIDAgMi44YzAgMCAzOC4xIDM4LjIgMzggMzguMmM0LjcgNC43IDYuNSAxMCAxLjggMTQuN3MtMTAuNiAzLjUtMTUuMy0xLjFsMy40IDMuNGM0LjcgNC43IDEyLjMgNC43IDE3IDBzNC43LTEyLjIgMC0xNi45YzAtLjEtMzguMi0zOC4zLTM4LjItMzguM3oiPgoKPC9wYXRoPgoKPHBhdGggZmlsbD0iI2Y0NDMzNiIgZD0iTTExNS40IDExOC4zYzQuNy00LjcgMi45LTEwLTEuOC0xNC43Yy4xIDAtMzgtMzguMi0zOC0zOC4yYy0uOC0uOC0uOC0yIDAtMi44bDM5LjMtMzkuMmM0LjctNC43IDUuNS05LjYuOC0xNC4zcy05LjQtNC4zLTE0LjEuNEw2Mi4zIDQ4LjdjLS44LjgtMiAuOC0yLjggMEwyMS45IDEwLjJDMTcuMiA1LjUgMTEuOCAzLjQgNy4xIDhjLS4yLjItLjQuNC0uNi43Yy0zLjcgNC43LTMuMyAxMS40IDEgMTUuN2wzOC4xIDM4LjJjLjguOC44IDIuMSAwIDIuOEw3LjUgMTAzLjVjLTQuNyA0LjctNC43IDEyLjMgMCAxN2MxLjUgMS41IDMuMiAyLjUgNSAzYzEuOC0uNiAzLjYtMS42IDUtM2w0MS4zLTQxLjljLjgtLjggMi4xLS44IDIuOCAwbDMuNyAzLjhsMzQuNyAzNC44YzQuOCA0LjYgMTAuNyA1LjggMTUuNCAxLjF6Ij4KCjwvcGF0aD4KCjxnIGZpbGw9IiNmZmZmZmYiPgoKPHBhdGggb3BhY2l0eT0iLjIiIGQ9Ik01NSA1Ni40Yy0xLjEtMS42LTMyLjMtMzMuMS0zMi4zLTMzLjFzLTIuMy0yLjYtNC43LS44Yy0yLjIgMS43LTEuMSA0LjMuMSA1LjZzMjkgMjkuNyAzMC40IDMwLjljMS4zIDEuMiAzLjkgMS40IDUuNS42czEuOC0yLjEgMS0zLjJ6Ij4KCjwvcGF0aD4KCjxjaXJjbGUgb3BhY2l0eT0iLjIiIHI9IjMuMyIgY3k9IjE5IiBjeD0iMTIuMiI+Cgo8L2NpcmNsZT4KCjwvZz4KCjxwYXRoIGZpbGw9IiNmZmZmZmYiIG9wYWNpdHk9Ii4yIiBkPSJNNzIuMSA4MS44YzEuMSAxLjYgMzIuOCAzMi42IDMyLjggMzIuNnMyLjMgMi42IDQuNy43YzIuMi0xLjcgMS00LjMtLjItNS42Yy0xLjItMS4zLTI5LjQtMjkuMy0zMC44LTMwLjVjLTEuMy0xLjItMy45LTEuMy01LjUtLjVzLTEuOCAyLjItMSAzLjN6Ij4KCjwvcGF0aD4KCjwvc3ZnPg==;" vertex="1" parent="1">
                    <mxGeometry x="420" y="330" width="40" height="40" as="geometry"/>
                </mxCell>
                <mxCell id="38" value="" style="shape=image;verticalLabelPosition=bottom;labelBackgroundColor=default;verticalAlign=top;aspect=fixed;imageAspect=0;image=data:image/svg+xml,PHN2ZyB4bWxuczp4bGluaz0iaHR0cDovL3d3dy53My5vcmcvMTk5OS94bGluayIgeG1sbnM9Imh0dHA6Ly93d3cudzMub3JnLzIwMDAvc3ZnIiBwcmVzZXJ2ZUFzcGVjdFJhdGlvPSJ4TWlkWU1pZCBtZWV0IiBjbGFzcz0iaWNvbmlmeSBpY29uaWZ5LS1ub3RvIiByb2xlPSJpbWciIGFyaWEtaGlkZGVuPSJ0cnVlIiB2aWV3Qm94PSIzLjk3NTAwMDE0MzA1MTE0NzUgMy45NzUwMDAxNDMwNTExNDc1IDEyMC4wNDk5OTU0MjIzNjMyOCAxMjAuMTUwMDAxNTI1ODc4OSIgaGVpZ2h0PSI3NTAuOTM3NTA5NTM2NzQzMiIgd2lkdGg9Ijc1MC4zMTI0NzEzODk3NzA1Ij4KCjxwYXRoIGZpbGw9IiNjMzMiIGQ9Ik01OC45IDc4LjZsLTQxLjMgNDEuOWMtMS41IDEuNS0zLjIgMi41LTUgM2M0LjEgMS4yIDguNi4yIDExLjgtM2wzOC4yLTM4LjFjLjgtLjggMi4xLS44IDIuOCAwbC0zLjctMy44Yy0uNy0uOC0yLS44LTIuOCAweiI+Cgo8L3BhdGg+Cgo8cGF0aCBmaWxsPSIjYzMzIiBkPSJNODIuMyA2NS40Yy0uOC0uOC0uOC0yIDAtMi44bDM4LjItMzguMWM0LjctNC43IDQuNy0xMi4zIDAtMTdzLTEyLjItNC43LTE2LjkgMEw2NS40IDQ1LjZjLS44LjgtMiAuOC0yLjggMEwyNC41IDcuNWMtNC43LTQuNy0xMi4zLTQuNy0xNyAwYy0uNC40LS43LjgtMSAxLjJjLjItLjMuNC0uNS42LS43YzQuNy00LjYgMTAuMS0yLjUgMTQuOCAyLjJsMzcuNiAzOC41Yy44LjggMiAuOCAyLjggMGwzOS4zLTM5LjJjNC43LTQuNyA5LjQtNS4xIDE0LjEtLjRzMy45IDkuNi0uOCAxNC4zTDc1LjYgNjIuNmMtLjguOC0uOCAyIDAgMi44YzAgMCAzOC4xIDM4LjIgMzggMzguMmM0LjcgNC43IDYuNSAxMCAxLjggMTQuN3MtMTAuNiAzLjUtMTUuMy0xLjFsMy40IDMuNGM0LjcgNC43IDEyLjMgNC43IDE3IDBzNC43LTEyLjIgMC0xNi45YzAtLjEtMzguMi0zOC4zLTM4LjItMzguM3oiPgoKPC9wYXRoPgoKPHBhdGggZmlsbD0iI2Y0NDMzNiIgZD0iTTExNS40IDExOC4zYzQuNy00LjcgMi45LTEwLTEuOC0xNC43Yy4xIDAtMzgtMzguMi0zOC0zOC4yYy0uOC0uOC0uOC0yIDAtMi44bDM5LjMtMzkuMmM0LjctNC43IDUuNS05LjYuOC0xNC4zcy05LjQtNC4zLTE0LjEuNEw2Mi4zIDQ4LjdjLS44LjgtMiAuOC0yLjggMEwyMS45IDEwLjJDMTcuMiA1LjUgMTEuOCAzLjQgNy4xIDhjLS4yLjItLjQuNC0uNi43Yy0zLjcgNC43LTMuMyAxMS40IDEgMTUuN2wzOC4xIDM4LjJjLjguOC44IDIuMSAwIDIuOEw3LjUgMTAzLjVjLTQuNyA0LjctNC43IDEyLjMgMCAxN2MxLjUgMS41IDMuMiAyLjUgNSAzYzEuOC0uNiAzLjYtMS42IDUtM2w0MS4zLTQxLjljLjgtLjggMi4xLS44IDIuOCAwbDMuNyAzLjhsMzQuNyAzNC44YzQuOCA0LjYgMTAuNyA1LjggMTUuNCAxLjF6Ij4KCjwvcGF0aD4KCjxnIGZpbGw9IiNmZmZmZmYiPgoKPHBhdGggb3BhY2l0eT0iLjIiIGQ9Ik01NSA1Ni40Yy0xLjEtMS42LTMyLjMtMzMuMS0zMi4zLTMzLjFzLTIuMy0yLjYtNC43LS44Yy0yLjIgMS43LTEuMSA0LjMuMSA1LjZzMjkgMjkuNyAzMC40IDMwLjljMS4zIDEuMiAzLjkgMS40IDUuNS42czEuOC0yLjEgMS0zLjJ6Ij4KCjwvcGF0aD4KCjxjaXJjbGUgb3BhY2l0eT0iLjIiIHI9IjMuMyIgY3k9IjE5IiBjeD0iMTIuMiI+Cgo8L2NpcmNsZT4KCjwvZz4KCjxwYXRoIGZpbGw9IiNmZmZmZmYiIG9wYWNpdHk9Ii4yIiBkPSJNNzIuMSA4MS44YzEuMSAxLjYgMzIuOCAzMi42IDMyLjggMzIuNnMyLjMgMi42IDQuNy43YzIuMi0xLjcgMS00LjMtLjItNS42Yy0xLjItMS4zLTI5LjQtMjkuMy0zMC44LTMwLjVjLTEuMy0xLjItMy45LTEuMy01LjUtLjVzLTEuOCAyLjItMSAzLjN6Ij4KCjwvcGF0aD4KCjwvc3ZnPg==;" vertex="1" parent="1">
                    <mxGeometry x="560" y="540" width="40" height="40" as="geometry"/>
                </mxCell>
                <mxCell id="39" value="" style="shape=image;verticalLabelPosition=bottom;labelBackgroundColor=default;verticalAlign=top;aspect=fixed;imageAspect=0;image=data:image/svg+xml,PHN2ZyB4bWxuczp4bGluaz0iaHR0cDovL3d3dy53My5vcmcvMTk5OS94bGluayIgeG1sbnM9Imh0dHA6Ly93d3cudzMub3JnLzIwMDAvc3ZnIiBwcmVzZXJ2ZUFzcGVjdFJhdGlvPSJ4TWlkWU1pZCBtZWV0IiBjbGFzcz0iaWNvbmlmeSBpY29uaWZ5LS1ub3RvIiByb2xlPSJpbWciIGFyaWEtaGlkZGVuPSJ0cnVlIiB2aWV3Qm94PSIzLjk3NTAwMDE0MzA1MTE0NzUgMy45NzUwMDAxNDMwNTExNDc1IDEyMC4wNDk5OTU0MjIzNjMyOCAxMjAuMTUwMDAxNTI1ODc4OSIgaGVpZ2h0PSI3NTAuOTM3NTA5NTM2NzQzMiIgd2lkdGg9Ijc1MC4zMTI0NzEzODk3NzA1Ij4KCjxwYXRoIGZpbGw9IiNjMzMiIGQ9Ik01OC45IDc4LjZsLTQxLjMgNDEuOWMtMS41IDEuNS0zLjIgMi41LTUgM2M0LjEgMS4yIDguNi4yIDExLjgtM2wzOC4yLTM4LjFjLjgtLjggMi4xLS44IDIuOCAwbC0zLjctMy44Yy0uNy0uOC0yLS44LTIuOCAweiI+Cgo8L3BhdGg+Cgo8cGF0aCBmaWxsPSIjYzMzIiBkPSJNODIuMyA2NS40Yy0uOC0uOC0uOC0yIDAtMi44bDM4LjItMzguMWM0LjctNC43IDQuNy0xMi4zIDAtMTdzLTEyLjItNC43LTE2LjkgMEw2NS40IDQ1LjZjLS44LjgtMiAuOC0yLjggMEwyNC41IDcuNWMtNC43LTQuNy0xMi4zLTQuNy0xNyAwYy0uNC40LS43LjgtMSAxLjJjLjItLjMuNC0uNS42LS43YzQuNy00LjYgMTAuMS0yLjUgMTQuOCAyLjJsMzcuNiAzOC41Yy44LjggMiAuOCAyLjggMGwzOS4zLTM5LjJjNC43LTQuNyA5LjQtNS4xIDE0LjEtLjRzMy45IDkuNi0uOCAxNC4zTDc1LjYgNjIuNmMtLjguOC0uOCAyIDAgMi44YzAgMCAzOC4xIDM4LjIgMzggMzguMmM0LjcgNC43IDYuNSAxMCAxLjggMTQuN3MtMTAuNiAzLjUtMTUuMy0xLjFsMy40IDMuNGM0LjcgNC43IDEyLjMgNC43IDE3IDBzNC43LTEyLjIgMC0xNi45YzAtLjEtMzguMi0zOC4zLTM4LjItMzguM3oiPgoKPC9wYXRoPgoKPHBhdGggZmlsbD0iI2Y0NDMzNiIgZD0iTTExNS40IDExOC4zYzQuNy00LjcgMi45LTEwLTEuOC0xNC43Yy4xIDAtMzgtMzguMi0zOC0zOC4yYy0uOC0uOC0uOC0yIDAtMi44bDM5LjMtMzkuMmM0LjctNC43IDUuNS05LjYuOC0xNC4zcy05LjQtNC4zLTE0LjEuNEw2Mi4zIDQ4LjdjLS44LjgtMiAuOC0yLjggMEwyMS45IDEwLjJDMTcuMiA1LjUgMTEuOCAzLjQgNy4xIDhjLS4yLjItLjQuNC0uNi43Yy0zLjcgNC43LTMuMyAxMS40IDEgMTUuN2wzOC4xIDM4LjJjLjguOC44IDIuMSAwIDIuOEw3LjUgMTAzLjVjLTQuNyA0LjctNC43IDEyLjMgMCAxN2MxLjUgMS41IDMuMiAyLjUgNSAzYzEuOC0uNiAzLjYtMS42IDUtM2w0MS4zLTQxLjljLjgtLjggMi4xLS44IDIuOCAwbDMuNyAzLjhsMzQuNyAzNC44YzQuOCA0LjYgMTAuNyA1LjggMTUuNCAxLjF6Ij4KCjwvcGF0aD4KCjxnIGZpbGw9IiNmZmZmZmYiPgoKPHBhdGggb3BhY2l0eT0iLjIiIGQ9Ik01NSA1Ni40Yy0xLjEtMS42LTMyLjMtMzMuMS0zMi4zLTMzLjFzLTIuMy0yLjYtNC43LS44Yy0yLjIgMS43LTEuMSA0LjMuMSA1LjZzMjkgMjkuNyAzMC40IDMwLjljMS4zIDEuMiAzLjkgMS40IDUuNS42czEuOC0yLjEgMS0zLjJ6Ij4KCjwvcGF0aD4KCjxjaXJjbGUgb3BhY2l0eT0iLjIiIHI9IjMuMyIgY3k9IjE5IiBjeD0iMTIuMiI+Cgo8L2NpcmNsZT4KCjwvZz4KCjxwYXRoIGZpbGw9IiNmZmZmZmYiIG9wYWNpdHk9Ii4yIiBkPSJNNzIuMSA4MS44YzEuMSAxLjYgMzIuOCAzMi42IDMyLjggMzIuNnMyLjMgMi42IDQuNy43YzIuMi0xLjcgMS00LjMtLjItNS42Yy0xLjItMS4zLTI5LjQtMjkuMy0zMC44LTMwLjVjLTEuMy0xLjItMy45LTEuMy01LjUtLjVzLTEuOCAyLjItMSAzLjN6Ij4KCjwvcGF0aD4KCjwvc3ZnPg==;" vertex="1" parent="1">
                    <mxGeometry x="390" y="930" width="40" height="40" as="geometry"/>
                </mxCell>
                <mxCell id="40" value="" style="shape=image;verticalLabelPosition=bottom;labelBackgroundColor=default;verticalAlign=top;aspect=fixed;imageAspect=0;image=data:image/svg+xml,PHN2ZyB4bWxucz0iaHR0cDovL3d3dy53My5vcmcvMjAwMC9zdmciIGZpbGw9Im5vbmUiIHZpZXdCb3g9IjAgMCAyNCAyNCIgaGVpZ2h0PSI4MDBweCIgd2lkdGg9IjgwMHB4Ij4KPHBhdGggZmlsbD0idXJsKCNwYWludDBfbGluZWFyKSIgZD0iTTQuOTE5ODggMTIuMjU3QzQuMjg1NiAxMi4yNTcgMy42NTEzMSAxMi41MTk5IDMuMTk5ODggMTMuMDM0MkMyLjc5NDE3IDEzLjQ5MTMgMi41OTQxNyAxNC4wNzk5IDIuNjM0MTcgMTQuNjkxM0MyLjY3NDE3IDE1LjMwMjcgMi45NDg0NiAxNS44NTcgMy40MDU2IDE2LjI2MjdMNy41MTQxNyAxOS44Njg0QzcuOTMxMzEgMjAuMjM0MiA4LjQ2ODQ2IDIwLjQzOTkgOS4wMjI3NCAyMC40Mzk5QzkuMDg1NiAyMC40Mzk5IDkuMTQ4NDYgMjAuNDM5OSA5LjIxMTMxIDIwLjQzNDJDOS44Mjg0NiAyMC4zODI3IDEwLjQwNTYgMjAuMDc5OSAxMC43OTQyIDE5LjU5OTlMMjAuODU3IDcuMjc5ODZDMjEuNjU3IDYuMzAyNzIgMjEuNTA4NSA0Ljg1NzAxIDIwLjUzMTMgNC4wNTcwMUMyMC4wNTcgMy42NzQxNSAxOS40NjI3IDMuNDkxMjkgMTguODU3IDMuNTU0MTVDMTguMjUxMyAzLjYxNzAxIDE3LjcwMjcgMy45MDg0NCAxNy4zMTQyIDQuMzgyNzJMOC43NDg0NiAxNC44NjI3TDYuNDIyNzQgMTIuODIyN0M1Ljk5NDE3IDEyLjQ0NTYgNS40NTEzMSAxMi4yNTcgNC45MTk4OCAxMi4yNTdaIi8+CjxwYXRoIGZpbGw9InVybCgjcGFpbnQxX2xpbmVhcikiIGQ9Ik05LjAyMjc5IDIwLjAyODRDOC41NjU2NSAyMC4wMjg0IDguMTI1NjUgMTkuODYyNyA3Ljc4Mjc5IDE5LjU1OThMMy42NzQyMiAxNS45NTQxQzIuODk3MDggMTUuMjY4NCAyLjgxNzA4IDE0LjA3OTggMy41MDI3OSAxMy4zMDI3QzQuMTg4NTEgMTIuNTI1NSA1LjM3NzA4IDEyLjQ0NTUgNi4xNTQyMiAxMy4xMzEzTDguNzk5OTQgMTUuNDUxM0wxNy42Mjg1IDQuNjM5ODNDMTguMjg1NiAzLjgzNDEyIDE5LjQ2ODUgMy43MTk4MyAyMC4yNzQyIDQuMzcxMjZDMjEuMDc5OSA1LjAyODQgMjEuMTk0MiA2LjIxMTI2IDIwLjU0MjggNy4wMTY5N0wxMC40NzQyIDE5LjMzN0MxMC4xNTQyIDE5LjczMTMgOS42Nzk5MyAxOS45NzcgOS4xNzcwOCAyMC4wMjI3QzkuMTI1NjUgMjAuMDIyNyA5LjA3NDIyIDIwLjAyODQgOS4wMjI3OSAyMC4wMjg0WiIvPgo8cGF0aCBmaWxsPSJ1cmwoI3BhaW50Ml9yYWRpYWwpIiBkPSJNOS4wMjI3OSAyMC4wMjg0QzguNTY1NjUgMjAuMDI4NCA4LjEyNTY1IDE5Ljg2MjcgNy43ODI3OSAxOS41NTk4TDMuNjc0MjIgMTUuOTU0MUMyLjg5NzA4IDE1LjI2ODQgMi44MTcwOCAxNC4wNzk4IDMuNTAyNzkgMTMuMzAyN0M0LjE4ODUxIDEyLjUyNTUgNS4zNzcwOCAxMi40NDU1IDYuMTU0MjIgMTMuMTMxM0w4Ljc5OTk0IDE1LjQ1MTNMMTcuNjI4NSA0LjYzOTgzQzE4LjI4NTYgMy44MzQxMiAxOS40Njg1IDMuNzE5ODMgMjAuMjc0MiA0LjM3MTI2QzIxLjA3OTkgNS4wMjg0IDIxLjE5NDIgNi4yMTEyNiAyMC41NDI4IDcuMDE2OTdMMTAuNDc0MiAxOS4zMzdDMTAuMTU0MiAxOS43MzEzIDkuNjc5OTMgMTkuOTc3IDkuMTc3MDggMjAuMDIyN0M5LjEyNTY1IDIwLjAyMjcgOS4wNzQyMiAyMC4wMjg0IDkuMDIyNzkgMjAuMDI4NFoiIG9wYWNpdHk9IjAuNzUiLz4KPHBhdGggZmlsbD0idXJsKCNwYWludDNfcmFkaWFsKSIgZD0iTTkuMDIyNzkgMjAuMDI4NEM4LjU2NTY1IDIwLjAyODQgOC4xMjU2NSAxOS44NjI3IDcuNzgyNzkgMTkuNTU5OEwzLjY3NDIyIDE1Ljk1NDFDMi44OTcwOCAxNS4yNjg0IDIuODE3MDggMTQuMDc5OCAzLjUwMjc5IDEzLjMwMjdDNC4xODg1MSAxMi41MjU1IDUuMzc3MDggMTIuNDQ1NSA2LjE1NDIyIDEzLjEzMTNMOC43OTk5NCAxNS40NTEzTDE3LjYyODUgNC42Mzk4M0MxOC4yODU2IDMuODM0MTIgMTkuNDY4NSAzLjcxOTgzIDIwLjI3NDIgNC4zNzEyNkMyMS4wNzk5IDUuMDI4NCAyMS4xOTQyIDYuMjExMjYgMjAuNTQyOCA3LjAxNjk3TDEwLjQ3NDIgMTkuMzM3QzEwLjE1NDIgMTkuNzMxMyA5LjY3OTkzIDE5Ljk3NyA5LjE3NzA4IDIwLjAyMjdDOS4xMjU2NSAyMC4wMjI3IDkuMDc0MjIgMjAuMDI4NCA5LjAyMjc5IDIwLjAyODRaIiBvcGFjaXR5PSIwLjUiLz4KPGRlZnM+CjxsaW5lYXJHcmFkaWVudCBncmFkaWVudFVuaXRzPSJ1c2VyU3BhY2VPblVzZSIgeTI9IjIzLjkxNzEiIHgyPSI5LjgyNTMzIiB5MT0iLTEzLjk2NjciIHgxPSIxNS44MjUiIGlkPSJwYWludDBfbGluZWFyIj4KPHN0b3Agc3RvcC1jb2xvcj0iIzAwQ0MwMCIvPgo8c3RvcCBzdG9wLWNvbG9yPSIjMDZDMTAyIiBvZmZzZXQ9IjAuMTg3OCIvPgo8c3RvcCBzdG9wLWNvbG9yPSIjMTdBMzA2IiBvZmZzZXQ9IjAuNTE4NSIvPgo8c3RvcCBzdG9wLWNvbG9yPSIjMzM3NDBDIiBvZmZzZXQ9IjAuOTUwNyIvPgo8c3RvcCBzdG9wLWNvbG9yPSIjMzY2RTBEIiBvZmZzZXQ9IjEiLz4KPC9saW5lYXJHcmFkaWVudD4KPGxpbmVhckdyYWRpZW50IGdyYWRpZW50VW5pdHM9InVzZXJTcGFjZU9uVXNlIiB5Mj0iMjMuNjIxNSIgeDI9IjcuNDM0NDMiIHkxPSIwLjYyNTQyNiIgeDE9IjE1LjI1MDEiIGlkPSJwYWludDFfbGluZWFyIj4KPHN0b3Agc3RvcC1jb2xvcj0iIzkwRDg1NiIgb2Zmc2V0PSIwLjI1NDQiLz4KPHN0b3Agc3RvcC1jb2xvcj0iIzAwQ0MwMCIgb2Zmc2V0PSIwLjczNiIvPgo8c3RvcCBzdG9wLWNvbG9yPSIjMEJDRDA3IiBvZmZzZXQ9IjAuNzcxNiIvPgo8c3RvcCBzdG9wLWNvbG9yPSIjMjlDRjE4IiBvZmZzZXQ9IjAuODM0MiIvPgo8c3RvcCBzdG9wLWNvbG9yPSIjNTlEMzM1IiBvZmZzZXQ9IjAuOTE2NiIvPgo8c3RvcCBzdG9wLWNvbG9yPSIjOTBEODU2IiBvZmZzZXQ9IjEiLz4KPC9saW5lYXJHcmFkaWVudD4KPHJhZGlhbEdyYWRpZW50IGdyYWRpZW50VHJhbnNmb3JtPSJ0cmFuc2xhdGUoMTUuNDUyIDguOTU4MDMpIHJvdGF0ZSgxMTYuMTI5KSBzY2FsZSg4LjM1Nzc2IDQuMjgzMTYpIiBncmFkaWVudFVuaXRzPSJ1c2VyU3BhY2VPblVzZSIgcj0iMSIgY3k9IjAiIGN4PSIwIiBpZD0icGFpbnQyX3JhZGlhbCI+CjxzdG9wIHN0b3Atb3BhY2l0eT0iMC43NSIgc3RvcC1jb2xvcj0iI0ZCRTA3QSIvPgo8c3RvcCBzdG9wLW9wYWNpdHk9IjAuNjg5NyIgc3RvcC1jb2xvcj0iI0ZCRTM4NyIgb2Zmc2V0PSIwLjA4MDMzOTQiLz4KPHN0b3Agc3RvcC1vcGFjaXR5PSIwLjM2MiIgc3RvcC1jb2xvcj0iI0ZERjJDNyIgb2Zmc2V0PSIwLjUxNzMiLz4KPHN0b3Agc3RvcC1vcGFjaXR5PSIwLjEyMzMiIHN0b3AtY29sb3I9IiNGRkZCRjAiIG9mZnNldD0iMC44MzU3Ii8+CjxzdG9wIHN0b3Atb3BhY2l0eT0iMCIgc3RvcC1jb2xvcj0id2hpdGUiIG9mZnNldD0iMSIvPgo8L3JhZGlhbEdyYWRpZW50Pgo8cmFkaWFsR3JhZGllbnQgZ3JhZGllbnRUcmFuc2Zvcm09InRyYW5zbGF0ZSgxMS42NDQyIDE3LjAyNDUpIHJvdGF0ZSgxNTUuMzE2KSBzY2FsZSg5LjgwMTYzIDQuMTQ5MDYpIiBncmFkaWVudFVuaXRzPSJ1c2VyU3BhY2VPblVzZSIgcj0iMSIgY3k9IjAiIGN4PSIwIiBpZD0icGFpbnQzX3JhZGlhbCI+CjxzdG9wIHN0b3Atb3BhY2l0eT0iMC4yNSIgc3RvcC1jb2xvcj0iIzQ0MDA2MyIvPgo8c3RvcCBzdG9wLW9wYWNpdHk9IjAiIHN0b3AtY29sb3I9IiM0MjAwNjEiIG9mZnNldD0iMSIvPgo8L3JhZGlhbEdyYWRpZW50Pgo8L2RlZnM+Cjwvc3ZnPg==;" vertex="1" parent="1">
                    <mxGeometry x="202.5" y="225" width="45" height="45" as="geometry"/>
                </mxCell>
                <mxCell id="41" value="" style="shape=image;verticalLabelPosition=bottom;labelBackgroundColor=default;verticalAlign=top;aspect=fixed;imageAspect=0;image=data:image/svg+xml,PHN2ZyB4bWxucz0iaHR0cDovL3d3dy53My5vcmcvMjAwMC9zdmciIGZpbGw9Im5vbmUiIHZpZXdCb3g9IjAgMCAyNCAyNCIgaGVpZ2h0PSI4MDBweCIgd2lkdGg9IjgwMHB4Ij4KPHBhdGggZmlsbD0idXJsKCNwYWludDBfbGluZWFyKSIgZD0iTTQuOTE5ODggMTIuMjU3QzQuMjg1NiAxMi4yNTcgMy42NTEzMSAxMi41MTk5IDMuMTk5ODggMTMuMDM0MkMyLjc5NDE3IDEzLjQ5MTMgMi41OTQxNyAxNC4wNzk5IDIuNjM0MTcgMTQuNjkxM0MyLjY3NDE3IDE1LjMwMjcgMi45NDg0NiAxNS44NTcgMy40MDU2IDE2LjI2MjdMNy41MTQxNyAxOS44Njg0QzcuOTMxMzEgMjAuMjM0MiA4LjQ2ODQ2IDIwLjQzOTkgOS4wMjI3NCAyMC40Mzk5QzkuMDg1NiAyMC40Mzk5IDkuMTQ4NDYgMjAuNDM5OSA5LjIxMTMxIDIwLjQzNDJDOS44Mjg0NiAyMC4zODI3IDEwLjQwNTYgMjAuMDc5OSAxMC43OTQyIDE5LjU5OTlMMjAuODU3IDcuMjc5ODZDMjEuNjU3IDYuMzAyNzIgMjEuNTA4NSA0Ljg1NzAxIDIwLjUzMTMgNC4wNTcwMUMyMC4wNTcgMy42NzQxNSAxOS40NjI3IDMuNDkxMjkgMTguODU3IDMuNTU0MTVDMTguMjUxMyAzLjYxNzAxIDE3LjcwMjcgMy45MDg0NCAxNy4zMTQyIDQuMzgyNzJMOC43NDg0NiAxNC44NjI3TDYuNDIyNzQgMTIuODIyN0M1Ljk5NDE3IDEyLjQ0NTYgNS40NTEzMSAxMi4yNTcgNC45MTk4OCAxMi4yNTdaIi8+CjxwYXRoIGZpbGw9InVybCgjcGFpbnQxX2xpbmVhcikiIGQ9Ik05LjAyMjc5IDIwLjAyODRDOC41NjU2NSAyMC4wMjg0IDguMTI1NjUgMTkuODYyNyA3Ljc4Mjc5IDE5LjU1OThMMy42NzQyMiAxNS45NTQxQzIuODk3MDggMTUuMjY4NCAyLjgxNzA4IDE0LjA3OTggMy41MDI3OSAxMy4zMDI3QzQuMTg4NTEgMTIuNTI1NSA1LjM3NzA4IDEyLjQ0NTUgNi4xNTQyMiAxMy4xMzEzTDguNzk5OTQgMTUuNDUxM0wxNy42Mjg1IDQuNjM5ODNDMTguMjg1NiAzLjgzNDEyIDE5LjQ2ODUgMy43MTk4MyAyMC4yNzQyIDQuMzcxMjZDMjEuMDc5OSA1LjAyODQgMjEuMTk0MiA2LjIxMTI2IDIwLjU0MjggNy4wMTY5N0wxMC40NzQyIDE5LjMzN0MxMC4xNTQyIDE5LjczMTMgOS42Nzk5MyAxOS45NzcgOS4xNzcwOCAyMC4wMjI3QzkuMTI1NjUgMjAuMDIyNyA5LjA3NDIyIDIwLjAyODQgOS4wMjI3OSAyMC4wMjg0WiIvPgo8cGF0aCBmaWxsPSJ1cmwoI3BhaW50Ml9yYWRpYWwpIiBkPSJNOS4wMjI3OSAyMC4wMjg0QzguNTY1NjUgMjAuMDI4NCA4LjEyNTY1IDE5Ljg2MjcgNy43ODI3OSAxOS41NTk4TDMuNjc0MjIgMTUuOTU0MUMyLjg5NzA4IDE1LjI2ODQgMi44MTcwOCAxNC4wNzk4IDMuNTAyNzkgMTMuMzAyN0M0LjE4ODUxIDEyLjUyNTUgNS4zNzcwOCAxMi40NDU1IDYuMTU0MjIgMTMuMTMxM0w4Ljc5OTk0IDE1LjQ1MTNMMTcuNjI4NSA0LjYzOTgzQzE4LjI4NTYgMy44MzQxMiAxOS40Njg1IDMuNzE5ODMgMjAuMjc0MiA0LjM3MTI2QzIxLjA3OTkgNS4wMjg0IDIxLjE5NDIgNi4yMTEyNiAyMC41NDI4IDcuMDE2OTdMMTAuNDc0MiAxOS4zMzdDMTAuMTU0MiAxOS43MzEzIDkuNjc5OTMgMTkuOTc3IDkuMTc3MDggMjAuMDIyN0M5LjEyNTY1IDIwLjAyMjcgOS4wNzQyMiAyMC4wMjg0IDkuMDIyNzkgMjAuMDI4NFoiIG9wYWNpdHk9IjAuNzUiLz4KPHBhdGggZmlsbD0idXJsKCNwYWludDNfcmFkaWFsKSIgZD0iTTkuMDIyNzkgMjAuMDI4NEM4LjU2NTY1IDIwLjAyODQgOC4xMjU2NSAxOS44NjI3IDcuNzgyNzkgMTkuNTU5OEwzLjY3NDIyIDE1Ljk1NDFDMi44OTcwOCAxNS4yNjg0IDIuODE3MDggMTQuMDc5OCAzLjUwMjc5IDEzLjMwMjdDNC4xODg1MSAxMi41MjU1IDUuMzc3MDggMTIuNDQ1NSA2LjE1NDIyIDEzLjEzMTNMOC43OTk5NCAxNS40NTEzTDE3LjYyODUgNC42Mzk4M0MxOC4yODU2IDMuODM0MTIgMTkuNDY4NSAzLjcxOTgzIDIwLjI3NDIgNC4zNzEyNkMyMS4wNzk5IDUuMDI4NCAyMS4xOTQyIDYuMjExMjYgMjAuNTQyOCA3LjAxNjk3TDEwLjQ3NDIgMTkuMzM3QzEwLjE1NDIgMTkuNzMxMyA5LjY3OTkzIDE5Ljk3NyA5LjE3NzA4IDIwLjAyMjdDOS4xMjU2NSAyMC4wMjI3IDkuMDc0MjIgMjAuMDI4NCA5LjAyMjc5IDIwLjAyODRaIiBvcGFjaXR5PSIwLjUiLz4KPGRlZnM+CjxsaW5lYXJHcmFkaWVudCBncmFkaWVudFVuaXRzPSJ1c2VyU3BhY2VPblVzZSIgeTI9IjIzLjkxNzEiIHgyPSI5LjgyNTMzIiB5MT0iLTEzLjk2NjciIHgxPSIxNS44MjUiIGlkPSJwYWludDBfbGluZWFyIj4KPHN0b3Agc3RvcC1jb2xvcj0iIzAwQ0MwMCIvPgo8c3RvcCBzdG9wLWNvbG9yPSIjMDZDMTAyIiBvZmZzZXQ9IjAuMTg3OCIvPgo8c3RvcCBzdG9wLWNvbG9yPSIjMTdBMzA2IiBvZmZzZXQ9IjAuNTE4NSIvPgo8c3RvcCBzdG9wLWNvbG9yPSIjMzM3NDBDIiBvZmZzZXQ9IjAuOTUwNyIvPgo8c3RvcCBzdG9wLWNvbG9yPSIjMzY2RTBEIiBvZmZzZXQ9IjEiLz4KPC9saW5lYXJHcmFkaWVudD4KPGxpbmVhckdyYWRpZW50IGdyYWRpZW50VW5pdHM9InVzZXJTcGFjZU9uVXNlIiB5Mj0iMjMuNjIxNSIgeDI9IjcuNDM0NDMiIHkxPSIwLjYyNTQyNiIgeDE9IjE1LjI1MDEiIGlkPSJwYWludDFfbGluZWFyIj4KPHN0b3Agc3RvcC1jb2xvcj0iIzkwRDg1NiIgb2Zmc2V0PSIwLjI1NDQiLz4KPHN0b3Agc3RvcC1jb2xvcj0iIzAwQ0MwMCIgb2Zmc2V0PSIwLjczNiIvPgo8c3RvcCBzdG9wLWNvbG9yPSIjMEJDRDA3IiBvZmZzZXQ9IjAuNzcxNiIvPgo8c3RvcCBzdG9wLWNvbG9yPSIjMjlDRjE4IiBvZmZzZXQ9IjAuODM0MiIvPgo8c3RvcCBzdG9wLWNvbG9yPSIjNTlEMzM1IiBvZmZzZXQ9IjAuOTE2NiIvPgo8c3RvcCBzdG9wLWNvbG9yPSIjOTBEODU2IiBvZmZzZXQ9IjEiLz4KPC9saW5lYXJHcmFkaWVudD4KPHJhZGlhbEdyYWRpZW50IGdyYWRpZW50VHJhbnNmb3JtPSJ0cmFuc2xhdGUoMTUuNDUyIDguOTU4MDMpIHJvdGF0ZSgxMTYuMTI5KSBzY2FsZSg4LjM1Nzc2IDQuMjgzMTYpIiBncmFkaWVudFVuaXRzPSJ1c2VyU3BhY2VPblVzZSIgcj0iMSIgY3k9IjAiIGN4PSIwIiBpZD0icGFpbnQyX3JhZGlhbCI+CjxzdG9wIHN0b3Atb3BhY2l0eT0iMC43NSIgc3RvcC1jb2xvcj0iI0ZCRTA3QSIvPgo8c3RvcCBzdG9wLW9wYWNpdHk9IjAuNjg5NyIgc3RvcC1jb2xvcj0iI0ZCRTM4NyIgb2Zmc2V0PSIwLjA4MDMzOTQiLz4KPHN0b3Agc3RvcC1vcGFjaXR5PSIwLjM2MiIgc3RvcC1jb2xvcj0iI0ZERjJDNyIgb2Zmc2V0PSIwLjUxNzMiLz4KPHN0b3Agc3RvcC1vcGFjaXR5PSIwLjEyMzMiIHN0b3AtY29sb3I9IiNGRkZCRjAiIG9mZnNldD0iMC44MzU3Ii8+CjxzdG9wIHN0b3Atb3BhY2l0eT0iMCIgc3RvcC1jb2xvcj0id2hpdGUiIG9mZnNldD0iMSIvPgo8L3JhZGlhbEdyYWRpZW50Pgo8cmFkaWFsR3JhZGllbnQgZ3JhZGllbnRUcmFuc2Zvcm09InRyYW5zbGF0ZSgxMS42NDQyIDE3LjAyNDUpIHJvdGF0ZSgxNTUuMzE2KSBzY2FsZSg5LjgwMTYzIDQuMTQ5MDYpIiBncmFkaWVudFVuaXRzPSJ1c2VyU3BhY2VPblVzZSIgcj0iMSIgY3k9IjAiIGN4PSIwIiBpZD0icGFpbnQzX3JhZGlhbCI+CjxzdG9wIHN0b3Atb3BhY2l0eT0iMC4yNSIgc3RvcC1jb2xvcj0iIzQ0MDA2MyIvPgo8c3RvcCBzdG9wLW9wYWNpdHk9IjAiIHN0b3AtY29sb3I9IiM0MjAwNjEiIG9mZnNldD0iMSIvPgo8L3JhZGlhbEdyYWRpZW50Pgo8L2RlZnM+Cjwvc3ZnPg==;" vertex="1" parent="1">
                    <mxGeometry x="477.5" y="737.5" width="45" height="45" as="geometry"/>
                </mxCell>
            </root>
        </mxGraphModel>
    </diagram>
</mxfile>